<svg width="48" height="48" viewBox="0 0 48 48" fill="none" xmlns="http://www.w3.org/2000/svg">
<rect width="48" height="48" rx="24" fill="#F7F7F7"/>
<path fill-rule="evenodd" clip-rule="evenodd" d="M13.25 14C13.25 13.5858 13.5858 13.25 14 13.25H15.74C16.9296 13.25 17.9194 14.0501 18.2329 15.12H30.73C32.833 15.12 34.4396 16.8372 34.288 18.9341L33.7481 26.4339L33.7478 26.4375C33.608 28.2545 32.0257 29.74 30.19 29.74H19.54C17.4634 29.74 15.8254 27.9669 16.0027 25.8968C16.0027 25.8965 16.0026 25.8971 16.0027 25.8968L16.8326 15.9377C16.8859 15.3041 16.3799 14.75 15.74 14.75H14C13.5858 14.75 13.25 14.4142 13.25 14ZM18.2809 16.62L17.4974 26.0223L17.4972 26.0242C17.3951 27.2137 18.337 28.24 19.54 28.24H30.19C31.2338 28.24 32.171 27.3664 32.2521 26.3242C32.2521 26.3236 32.2522 26.323 32.2522 26.3225L32.7919 18.8261C32.8804 17.603 31.967 16.62 30.73 16.62H18.2809Z" fill="url(#paint0_linear_27_329)"/>
<path fill-rule="evenodd" clip-rule="evenodd" d="M28.25 32.25C27.9739 32.25 27.75 32.4739 27.75 32.75C27.75 33.0261 27.9739 33.25 28.25 33.25C28.5261 33.25 28.75 33.0261 28.75 32.75C28.75 32.4739 28.5261 32.25 28.25 32.25ZM26.25 32.75C26.25 31.6454 27.1454 30.75 28.25 30.75C29.3546 30.75 30.25 31.6454 30.25 32.75C30.25 33.8546 29.3546 34.75 28.25 34.75C27.1454 34.75 26.25 33.8546 26.25 32.75Z" fill="url(#paint1_linear_27_329)"/>
<path fill-rule="evenodd" clip-rule="evenodd" d="M20.25 32.25C19.9739 32.25 19.75 32.4739 19.75 32.75C19.75 33.0261 19.9739 33.25 20.25 33.25C20.5261 33.25 20.75 33.0261 20.75 32.75C20.75 32.4739 20.5261 32.25 20.25 32.25ZM18.25 32.75C18.25 31.6454 19.1454 30.75 20.25 30.75C21.3546 30.75 22.25 31.6454 22.25 32.75C22.25 33.8546 21.3546 34.75 20.25 34.75C19.1454 34.75 18.25 33.8546 18.25 32.75Z" fill="url(#paint2_linear_27_329)"/>
<path fill-rule="evenodd" clip-rule="evenodd" d="M20.25 20C20.25 19.5858 20.5858 19.25 21 19.25H33C33.4142 19.25 33.75 19.5858 33.75 20C33.75 20.4142 33.4142 20.75 33 20.75H21C20.5858 20.75 20.25 20.4142 20.25 20Z" fill="url(#paint3_linear_27_329)"/>
<defs>
<linearGradient id="paint0_linear_27_329" x1="36.8237" y1="19.5986" x2="14.5617" y2="28.7322" gradientUnits="userSpaceOnUse">
<stop stop-color="#D72339"/>
<stop offset="1" stop-color="#F23B51"/>
</linearGradient>
<linearGradient id="paint1_linear_27_329" x1="30.73" y1="32.29" x2="26.25" y2="33.73" gradientUnits="userSpaceOnUse">
<stop stop-color="#D72339"/>
<stop offset="1" stop-color="#F23B51"/>
</linearGradient>
<linearGradient id="paint2_linear_27_329" x1="22.73" y1="32.29" x2="18.25" y2="33.73" gradientUnits="userSpaceOnUse">
<stop stop-color="#D72339"/>
<stop offset="1" stop-color="#F23B51"/>
</linearGradient>
<linearGradient id="paint3_linear_27_329" x1="35.37" y1="19.8275" x2="33.5894" y2="24.9786" gradientUnits="userSpaceOnUse">
<stop stop-color="#D72339"/>
<stop offset="1" stop-color="#F23B51"/>
</linearGradient>
</defs>
</svg>
