<svg width="40" height="40" viewBox="0 0 40 40" fill="none" xmlns="http://www.w3.org/2000/svg">
<rect width="40" height="40" rx="20" fill="#F7F7F7"/>
<path fill-rule="evenodd" clip-rule="evenodd" d="M11.0947 11.0947C12.4291 9.7602 14.426 9.25 17 9.25H23C25.574 9.25 27.5709 9.7602 28.9053 11.0947C30.2398 12.4291 30.75 14.426 30.75 17V23C30.75 25.574 30.2398 27.5709 28.9053 28.9053C27.5709 30.2398 25.574 30.75 23 30.75H17C14.426 30.75 12.4291 30.2398 11.0947 28.9053C9.7602 27.5709 9.25 25.574 9.25 23V17C9.25 14.426 9.7602 12.4291 11.0947 11.0947ZM12.1553 12.1553C11.2398 13.0709 10.75 14.574 10.75 17V23C10.75 25.426 11.2398 26.9291 12.1553 27.8447C13.0709 28.7602 14.574 29.25 17 29.25H23C25.426 29.25 26.9291 28.7602 27.8447 27.8447C28.7602 26.9291 29.25 25.426 29.25 23V17C29.25 14.574 28.7602 13.0709 27.8447 12.1553C26.9291 11.2398 25.426 10.75 23 10.75H17C14.574 10.75 13.0709 11.2398 12.1553 12.1553Z" fill="#7D7D7D"/>
<path fill-rule="evenodd" clip-rule="evenodd" d="M20 17.25C18.4812 17.25 17.25 18.4812 17.25 20C17.25 21.5188 18.4812 22.75 20 22.75C21.5188 22.75 22.75 21.5188 22.75 20C22.75 18.4812 21.5188 17.25 20 17.25ZM15.75 20C15.75 17.6528 17.6528 15.75 20 15.75C22.3472 15.75 24.25 17.6528 24.25 20C24.25 22.3472 22.3472 24.25 20 24.25C17.6528 24.25 15.75 22.3472 15.75 20Z" fill="#7D7D7D"/>
<path fill-rule="evenodd" clip-rule="evenodd" d="M24.6361 15C24.6361 14.4477 25.0838 14 25.6361 14H25.6477C26.1999 14 26.6477 14.4477 26.6477 15C26.6477 15.5523 26.1999 16 25.6477 16H25.6361C25.0838 16 24.6361 15.5523 24.6361 15Z" fill="#7D7D7D"/>
</svg>
