<svg width="34" height="93" viewBox="0 0 34 93" fill="none" xmlns="http://www.w3.org/2000/svg">
<path d="M26.8665 32.428C17.9836 25.4576 7.38809 19.1824 0 0V92.5001C6.44522 75.6301 18.4051 68.889 28.0682 59.6002C32.0726 55.7509 34.0748 53.8263 33.6635 45.6325C33.2522 37.4388 31.1236 35.7685 26.8665 32.428Z" fill="white"/>
<path fill-rule="evenodd" clip-rule="evenodd" d="M8.41693 41.5C8.66101 41.744 8.66101 42.1398 8.41693 42.3838L3.80052 47.0002L8.41693 51.6166C8.66101 51.8607 8.66101 52.2564 8.41693 52.5005C8.17285 52.7446 7.77712 52.7446 7.53304 52.5005L2.47469 47.4422C2.35747 47.325 2.29163 47.166 2.29163 47.0002C2.29163 46.8345 2.35747 46.6755 2.47469 46.5583L7.53304 41.5C7.77712 41.2559 8.17285 41.2559 8.41693 41.5Z" fill="url(#paint0_linear_27_405)"/>
<path fill-rule="evenodd" clip-rule="evenodd" d="M2.43335 47C2.43335 46.6548 2.71317 46.375 3.05835 46.375H17.0834C17.4286 46.375 17.7084 46.6548 17.7084 47C17.7084 47.3452 17.4286 47.625 17.0834 47.625H3.05835C2.71317 47.625 2.43335 47.3452 2.43335 47Z" fill="url(#paint1_linear_27_405)"/>
<defs>
<linearGradient id="paint0_linear_27_405" x1="9.35699" y1="45.6931" x2="1.80208" y2="47.0408" gradientUnits="userSpaceOnUse">
<stop stop-color="#D72339"/>
<stop offset="1" stop-color="#F23B51"/>
</linearGradient>
<linearGradient id="paint1_linear_27_405" x1="19.5414" y1="46.8563" x2="18.3925" y2="51.3693" gradientUnits="userSpaceOnUse">
<stop stop-color="#D72339"/>
<stop offset="1" stop-color="#F23B51"/>
</linearGradient>
</defs>
</svg>
