<svg width="112" height="112" viewBox="0 0 112 112" fill="none" xmlns="http://www.w3.org/2000/svg">
<path d="M0 2C0 1.0538 0 0.580701 0.29923 0.286764C0.598459 -0.00717396 1.06585 0.00116646 2.00063 0.0178473C30.9808 0.534987 58.6638 12.2719 79.1959 32.804C99.2552 52.8633 110.92 79.7481 111.929 108C111.995 109.851 112.028 110.777 111.438 111.389C110.848 112 109.899 112 108 112L4 112C2.11439 112 1.17158 112 0.585788 111.414C0 110.828 0 109.886 0 108V2Z" fill="url(#paint0_linear_517_1850)"/>
<path d="M112 2C112 1.0538 112 0.580701 111.701 0.286764C111.402 -0.00717396 110.934 0.00116646 109.999 0.0178473C81.0192 0.534987 53.3362 12.2719 32.8041 32.804C12.7448 52.8633 1.08013 79.7481 0.0713882 108C0.00527191 109.851 -0.0277863 110.777 0.562019 111.389C1.15183 112 2.10122 112 4.00001 112L108 112C109.886 112 110.828 112 111.414 111.414C112 110.828 112 109.886 112 108V2Z" fill="url(#paint1_linear_517_1850)"/>
<circle cx="14.2546" cy="54.9819" r="6.10909" fill="white"/>
<ellipse cx="97.7456" cy="54.9819" rx="6.10909" ry="6.10909" fill="white"/>
<path fill-rule="evenodd" clip-rule="evenodd" d="M83.7804 83.7805C91.4183 76.1426 95.7092 65.7835 95.7092 54.9819H97.7455C97.7455 66.3236 93.2401 77.2007 85.2204 85.2204C77.2006 93.2401 66.3235 97.7456 54.9819 97.7456C43.6403 97.7456 32.7632 93.2401 24.7434 85.2204C16.7237 77.2007 12.2183 66.3236 12.2183 54.9819H14.2546C14.2546 65.7835 18.5455 76.1426 26.1834 83.7805C33.8212 91.4183 44.1804 95.7092 54.9819 95.7092C65.7834 95.7092 76.1426 91.4183 83.7804 83.7805Z" fill="white"/>
<defs>
<linearGradient id="paint0_linear_517_1850" x1="112" y1="83.4909" x2="0" y2="0" gradientUnits="userSpaceOnUse">
<stop stop-color="#D72339"/>
<stop offset="1" stop-color="#FF813B"/>
</linearGradient>
<linearGradient id="paint1_linear_517_1850" x1="-13.44" y1="43.12" x2="112" y2="83.44" gradientUnits="userSpaceOnUse">
<stop stop-color="#D72339"/>
<stop offset="1" stop-color="#F23B51"/>
</linearGradient>
</defs>
</svg>
