<svg width="20" height="21" viewBox="0 0 20 21" fill="none" xmlns="http://www.w3.org/2000/svg">
<path fill-rule="evenodd" clip-rule="evenodd" d="M1.84981 2.34971C2.42502 1.7745 3.23707 1.54166 4.16675 1.54166H5.83341C6.76309 1.54166 7.57514 1.7745 8.15036 2.34971C8.72557 2.92493 8.95841 3.73698 8.95841 4.66666V6.33332C8.95841 7.263 8.72557 8.07505 8.15036 8.65027C7.57514 9.22548 6.76309 9.45832 5.83341 9.45832H4.16675C3.23707 9.45832 2.42502 9.22548 1.84981 8.65027C1.27459 8.07505 1.04175 7.263 1.04175 6.33332V4.66666C1.04175 3.73698 1.27459 2.92493 1.84981 2.34971ZM2.73369 3.2336C2.47557 3.49172 2.29175 3.92966 2.29175 4.66666V6.33332C2.29175 7.07032 2.47557 7.50826 2.73369 7.76638C2.99181 8.0245 3.42976 8.20832 4.16675 8.20832H5.83341C6.57041 8.20832 7.00836 8.0245 7.26647 7.76638C7.52459 7.50826 7.70841 7.07032 7.70841 6.33332V4.66666C7.70841 3.92966 7.52459 3.49172 7.26647 3.2336C7.00836 2.97548 6.57041 2.79166 5.83341 2.79166H4.16675C3.42976 2.79166 2.99181 2.97548 2.73369 3.2336Z" fill="#4F4F4F"/>
<path fill-rule="evenodd" clip-rule="evenodd" d="M11.8498 2.34971C12.425 1.7745 13.2371 1.54166 14.1667 1.54166H15.8334C16.7631 1.54166 17.5751 1.7745 18.1504 2.34971C18.7256 2.92493 18.9584 3.73698 18.9584 4.66666V6.33332C18.9584 7.263 18.7256 8.07505 18.1504 8.65027C17.5751 9.22548 16.7631 9.45832 15.8334 9.45832H14.1667C13.2371 9.45832 12.425 9.22548 11.8498 8.65027C11.2746 8.07505 11.0417 7.263 11.0417 6.33332V4.66666C11.0417 3.73698 11.2746 2.92493 11.8498 2.34971ZM12.7337 3.2336C12.4756 3.49172 12.2917 3.92966 12.2917 4.66666V6.33332C12.2917 7.07032 12.4756 7.50826 12.7337 7.76638C12.9918 8.0245 13.4298 8.20832 14.1667 8.20832H15.8334C16.5704 8.20832 17.0084 8.0245 17.2665 7.76638C17.5246 7.50826 17.7084 7.07032 17.7084 6.33332V4.66666C17.7084 3.92966 17.5246 3.49172 17.2665 3.2336C17.0084 2.97548 16.5704 2.79166 15.8334 2.79166H14.1667C13.4298 2.79166 12.9918 2.97548 12.7337 3.2336Z" fill="#4F4F4F"/>
<path fill-rule="evenodd" clip-rule="evenodd" d="M11.8498 12.3497C12.425 11.7745 13.2371 11.5417 14.1667 11.5417H15.8334C16.7631 11.5417 17.5751 11.7745 18.1504 12.3497C18.7256 12.9249 18.9584 13.737 18.9584 14.6667V16.3333C18.9584 17.263 18.7256 18.075 18.1504 18.6503C17.5751 19.2255 16.7631 19.4583 15.8334 19.4583H14.1667C13.2371 19.4583 12.425 19.2255 11.8498 18.6503C11.2746 18.075 11.0417 17.263 11.0417 16.3333V14.6667C11.0417 13.737 11.2746 12.9249 11.8498 12.3497ZM12.7337 13.2336C12.4756 13.4917 12.2917 13.9297 12.2917 14.6667V16.3333C12.2917 17.0703 12.4756 17.5083 12.7337 17.7664C12.9918 18.0245 13.4298 18.2083 14.1667 18.2083H15.8334C16.5704 18.2083 17.0084 18.0245 17.2665 17.7664C17.5246 17.5083 17.7084 17.0703 17.7084 16.3333V14.6667C17.7084 13.9297 17.5246 13.4917 17.2665 13.2336C17.0084 12.9755 16.5704 12.7917 15.8334 12.7917H14.1667C13.4298 12.7917 12.9918 12.9755 12.7337 13.2336Z" fill="#4F4F4F"/>
<path fill-rule="evenodd" clip-rule="evenodd" d="M1.84981 12.3497C2.42502 11.7745 3.23707 11.5417 4.16675 11.5417H5.83341C6.76309 11.5417 7.57514 11.7745 8.15036 12.3497C8.72557 12.9249 8.95841 13.737 8.95841 14.6667V16.3333C8.95841 17.263 8.72557 18.075 8.15036 18.6503C7.57514 19.2255 6.76309 19.4583 5.83341 19.4583H4.16675C3.23707 19.4583 2.42502 19.2255 1.84981 18.6503C1.27459 18.075 1.04175 17.263 1.04175 16.3333V14.6667C1.04175 13.737 1.27459 12.9249 1.84981 12.3497ZM2.73369 13.2336C2.47557 13.4917 2.29175 13.9297 2.29175 14.6667V16.3333C2.29175 17.0703 2.47557 17.5083 2.73369 17.7664C2.99181 18.0245 3.42976 18.2083 4.16675 18.2083H5.83341C6.57041 18.2083 7.00836 18.0245 7.26647 17.7664C7.52459 17.5083 7.70841 17.0703 7.70841 16.3333V14.6667C7.70841 13.9297 7.52459 13.4917 7.26647 13.2336C7.00836 12.9755 6.57041 12.7917 5.83341 12.7917H4.16675C3.42976 12.7917 2.99181 12.9755 2.73369 13.2336Z" fill="#4F4F4F"/>
</svg>
