<svg width="22" height="22" viewBox="0 0 22 22" fill="none" xmlns="http://www.w3.org/2000/svg">
<path fill-rule="evenodd" clip-rule="evenodd" d="M4.05849 1.82348C3.66764 1.96076 3.29335 2.22139 3.03614 2.47459L3.03046 2.48018L3.02467 2.48565C2.56991 2.91466 2.25506 3.38365 2.05792 3.88469L2.05637 3.88865C1.85415 4.39419 1.75 4.94898 1.75 5.5401C1.75 6.46277 1.96266 7.45336 2.41075 8.51794C2.86507 9.58722 3.49483 10.678 4.28758 11.7804C5.0935 12.8871 5.99752 13.947 7.00038 14.9598C8.01353 15.963 9.07413 16.8676 10.1922 17.6843C11.291 18.4843 12.3917 19.1147 13.484 19.5801C14.5587 20.038 15.5486 20.2501 16.45 20.2501C17.0548 20.2501 17.6064 20.1383 18.1115 19.9278L18.1156 19.9261C18.3484 19.8307 18.7481 19.6115 19.1365 19.2868C19.5265 18.9607 19.8554 18.5698 20.0219 18.1459C20.1679 17.7742 20.22 17.5527 20.22 17.3301C20.22 17.169 20.1879 17.0177 20.1189 16.8419C20.072 16.7401 19.9913 16.6363 19.8331 16.5267L19.8258 16.5217L16.5222 14.1762C16.3028 14.0274 16.1216 13.9279 15.966 13.8643C15.8238 13.8061 15.7201 13.7901 15.64 13.7901C15.5438 13.7901 15.4472 13.8133 15.32 13.8907L15.2988 13.9036L15.2769 13.915C15.1389 13.9871 14.96 14.1208 14.7403 14.3404L14.7368 14.3439L13.9782 15.0925C13.7355 15.3342 13.4185 15.4801 13.04 15.4801C12.8919 15.4801 12.7163 15.4634 12.5267 15.3923L12.5105 15.3863L12.4946 15.3795C12.4533 15.3618 12.415 15.3442 12.3878 15.3317L12.38 15.3281C12.3476 15.3133 12.3366 15.3085 12.3315 15.3065L12.2944 15.2916L12.2591 15.2729C11.8536 15.0583 11.3777 14.7214 10.8355 14.2626L10.8346 14.2618C10.2851 13.7953 9.75068 13.2913 9.20465 12.7554L9.1996 12.7504L9.19464 12.7454C8.66123 12.2017 8.1705 11.6597 7.71287 11.1309L7.70742 11.1246C7.25416 10.5889 6.90702 10.1142 6.69158 9.71924L6.6596 9.66062L6.63858 9.59756C6.63857 9.59756 6.63602 9.59054 6.62302 9.55983C6.62193 9.55724 6.62075 9.55447 6.61951 9.55153C6.60704 9.52214 6.58736 9.47572 6.56775 9.42344L6.55275 9.38345L6.54239 9.342C6.51008 9.21275 6.49 9.08115 6.49 8.9301C6.49 8.59088 6.6056 8.26709 6.86359 8.00589L7.62454 7.2149L7.62967 7.20977C7.75032 7.08911 7.8993 6.93777 8.01881 6.75928C8.14206 6.57521 8.18311 6.43617 8.18033 6.34233C8.17892 6.29462 8.17303 6.26279 8.15954 6.21482C8.15144 6.18598 8.14217 6.15678 8.12728 6.10989L8.12329 6.0973C8.10724 6.04672 8.08709 5.98268 8.06679 5.90876C7.86154 5.16155 7.26806 4.27085 6.65954 3.51635C6.36503 3.1512 6.08452 2.83907 5.87774 2.61842C5.77459 2.50834 5.69038 2.42166 5.6327 2.36324C5.60388 2.33404 5.58173 2.31194 5.56721 2.29755L5.55128 2.28184L5.54783 2.27847L5.49502 2.22719L5.45336 2.16701C5.36599 2.04081 5.28793 1.97191 5.04359 1.83994C4.7732 1.6939 4.44404 1.68806 4.05849 1.82348ZM6.64264 1.25158C6.38157 0.897277 6.09316 0.702012 5.75641 0.520134C5 0.1116 4.20416 0.182476 3.56141 0.408233C2.92717 0.631001 2.37226 1.02482 1.98966 1.39992C1.38787 1.96909 0.944878 2.6176 0.662859 3.33352C0.385604 4.02742 0.25 4.77194 0.25 5.5401C0.25 6.69711 0.517195 7.88614 1.02877 9.10114L1.0297 9.10333C1.5351 10.2931 2.22475 11.4814 3.07115 12.658L3.07368 12.6615C3.92677 13.8333 4.8815 14.952 5.93711 16.0179L5.94224 16.023C7.00824 17.0787 8.12671 18.0332 9.30762 18.8957L9.30855 18.8964C10.4895 19.7562 11.6885 20.4456 12.896 20.9601C14.1213 21.4822 15.3114 21.7501 16.45 21.7501C17.2445 21.7501 17.9922 21.6022 18.6865 21.3132C19.0635 21.1584 19.5946 20.859 20.0987 20.4375C20.602 20.0167 21.1281 19.4326 21.4181 18.6943C21.5914 18.253 21.72 17.8275 21.72 17.3301C21.72 16.9352 21.6338 16.5901 21.5064 16.2716L21.5016 16.2597L21.4965 16.248C21.3234 15.8546 21.0455 15.5426 20.6909 15.2962L17.378 12.9442L17.3717 12.9399C17.0939 12.751 16.8169 12.5917 16.534 12.4759C16.2362 12.3541 15.9399 12.2901 15.64 12.2901C15.2447 12.2901 14.8882 12.402 14.5612 12.5967C14.2482 12.7639 13.955 13.0047 13.6815 13.2779L12.9918 13.9585C12.9753 13.951 12.955 13.9418 12.933 13.9323C12.6606 13.7842 12.2858 13.5248 11.8048 13.1179C11.2961 12.6859 10.7923 12.2117 10.2604 11.6898C9.75677 11.1762 9.29001 10.661 8.84989 10.1525C8.44802 9.67732 8.183 9.30797 8.03333 9.04559C8.02321 9.01978 8.01385 8.99753 8.00688 8.98106L8.69543 8.26533L8.69697 8.26379C8.8186 8.1422 9.05888 7.90199 9.26521 7.59384C9.47164 7.28553 9.69559 6.83458 9.67967 6.29787C9.67086 6.0006 9.58526 5.73664 9.53795 5.59077C9.52735 5.55808 9.51867 5.53132 9.51321 5.51144C9.22066 4.44641 8.45414 3.35211 7.82711 2.57467C7.50385 2.17386 7.19769 1.83328 6.97225 1.59272C6.8593 1.47219 6.76601 1.37613 6.70021 1.30947C6.67773 1.2867 6.65844 1.26733 6.64264 1.25158Z" fill="#7D7D7D"/>
</svg>
