<svg width="28" height="44" viewBox="0 0 28 44" fill="none" xmlns="http://www.w3.org/2000/svg">
<path d="M0 0H28V40.5536C28 42.0863 28 42.8527 27.5019 43.1417C27.0039 43.4308 26.3385 43.0506 25.0077 42.2901L14.9923 36.567C14.5078 36.2902 14.2656 36.1518 14 36.1518C13.7344 36.1518 13.4922 36.2902 13.0077 36.567L2.99228 42.2901C1.66152 43.0506 0.996146 43.4308 0.498073 43.1417C0 42.8527 0 42.0863 0 40.5536V0Z" fill="#C2123C"/>
<path d="M18.4226 15.2427C14.8527 13.0708 16.5267 10.0053 16.5986 9.87789C16.7028 9.69656 16.7025 9.47348 16.5977 9.29246C16.493 9.11145 16.2997 9 16.0906 9C14.2529 9 12.814 9.52211 11.8136 10.5519C10.1043 12.3114 10.1836 15.05 10.2174 16.2195C10.2211 16.349 10.2244 16.4609 10.2244 16.5441C10.2244 17.4123 10.3637 18.2139 10.4866 18.9212C10.5658 19.3769 10.6342 19.7705 10.6464 20.08C10.6594 20.4112 10.5989 20.4871 10.5963 20.4902C10.5877 20.5004 10.5158 20.5387 10.3215 20.5387C10.0998 20.5387 9.93644 20.4663 9.79168 20.3039C9.22621 19.6699 9.1871 17.9386 9.29523 16.9966C9.31457 16.8305 9.26203 16.6641 9.15082 16.5393C9.03964 16.4145 8.88042 16.343 8.71324 16.343C7.19194 16.343 6.05518 18.8309 6.05518 21.0552C6.05518 22.1009 6.26549 23.1252 6.6803 24.0998C7.08131 25.0419 7.65315 25.8922 8.37999 26.627C9.89375 28.1572 11.8896 29 13.9999 29C16.1187 29 18.114 28.1691 19.6183 26.6605C21.1187 25.1559 21.945 23.1651 21.945 21.0552C21.945 18.3629 19.8385 16.1041 18.4226 15.2427ZM13.9999 27.8281C10.3287 27.8281 7.2271 24.7265 7.2271 21.0552C7.2271 20.1623 7.44014 19.2251 7.81159 18.4839C7.89835 18.3107 7.98737 18.1621 8.07522 18.037C8.08503 19.0037 8.23815 20.3214 8.91609 21.0828C9.28179 21.4934 9.76777 21.7105 10.3215 21.7105C10.8388 21.7105 11.2331 21.5537 11.4931 21.2445C11.9794 20.6664 11.8301 19.8077 11.6412 18.7205C11.5264 18.0599 11.3963 17.3112 11.3963 16.544C11.3963 16.4439 11.3928 16.3242 11.3888 16.1855C11.3568 15.0777 11.29 12.7727 12.6542 11.3684C13.2666 10.738 14.1216 10.3543 15.2032 10.223C15.0811 10.6285 14.9758 11.1432 14.9718 11.7196C14.9628 12.9894 15.4485 14.8051 17.8135 16.2439C18.9578 16.94 20.7731 18.8618 20.7731 21.0552C20.7731 24.7898 17.7346 27.8281 13.9999 27.8281Z" fill="white"/>
</svg>
