<svg width="22" height="22" viewBox="0 0 22 22" fill="none" xmlns="http://www.w3.org/2000/svg">
<path fill-rule="evenodd" clip-rule="evenodd" d="M15.1035 1.81006C14.9376 1.72286 14.5098 1.66973 13.7794 2.19776L10.7015 4.41623C10.3672 4.66169 9.95113 4.79906 9.56834 4.85759C9.18272 4.91655 8.7485 4.90815 8.36141 4.78428L8.35571 4.78245L5.4062 3.81259C4.58662 3.54385 4.19685 3.71536 4.05718 3.85339C3.91657 3.99236 3.74008 4.38213 3.99607 5.20695C3.99613 5.20714 3.99601 5.20675 3.99607 5.20695L5.00533 8.43474C5.0054 8.43497 5.00525 8.4345 5.00533 8.43474C5.1389 8.85959 5.12738 9.33126 5.04141 9.74042C4.9553 10.1503 4.77664 10.5842 4.48845 10.9191L2.50941 13.2181C2.50924 13.2182 2.50957 13.2179 2.50941 13.2181C1.7731 14.0773 1.82428 14.5393 1.88693 14.6669C1.94974 14.7948 2.28368 15.1176 3.41236 15.0609L6.75182 14.8909C7.2159 14.8677 7.68897 15.0043 8.0812 15.2084C8.47324 15.4125 8.85993 15.723 9.10831 16.1263C9.10843 16.1265 9.10819 16.1261 9.10831 16.1263L10.868 18.9758C10.868 18.9758 10.868 18.9758 10.868 18.9758C11.4636 19.94 11.9181 20.0292 12.0569 20.0083C12.197 19.9872 12.6061 19.7662 12.8945 18.6696C12.8945 18.6694 12.8945 18.6697 12.8945 18.6696L13.6632 15.735C13.6634 15.734 13.6636 15.733 13.6639 15.7321C13.7747 15.2993 14.0344 14.9053 14.3234 14.6037C14.6134 14.3009 14.9944 14.0269 15.4148 13.8945L18.6441 12.8848C18.6444 12.8847 18.6438 12.8849 18.6441 12.8848C19.4694 12.624 19.6908 12.2558 19.725 12.0606C19.7588 11.8673 19.6782 11.4493 18.9882 10.9286L18.9869 10.9276L16.5102 9.05015C16.1771 8.80283 15.9226 8.44434 15.7537 8.09555C15.5837 7.7446 15.4622 7.32427 15.4701 6.91552L15.5401 3.12611C15.5577 2.2231 15.2704 1.89781 15.1035 1.81006ZM17.0398 3.15382C17.062 2.00714 16.7043 0.957001 15.8015 0.482354C14.8975 0.00711735 13.8305 0.310057 12.9011 0.981794C12.9012 0.981682 12.9009 0.981906 12.9011 0.981794L9.82143 3.20152L9.81458 3.20652C9.72956 3.26927 9.56234 3.34107 9.34162 3.37482C9.12367 3.40814 8.93396 3.39198 8.82079 3.35634L5.87425 2.38748C4.80417 2.03645 3.71808 2.07958 3.00278 2.78651C2.28844 3.4925 2.22998 4.57757 2.56373 5.65236L3.57455 8.88517C3.61074 9.00013 3.62245 9.19886 3.57347 9.43198C3.52459 9.66461 3.43325 9.84568 3.35144 9.94076L1.37156 12.2407L1.37052 12.2419C0.54735 13.2022 0.0556624 14.3407 0.540502 15.328C1.0252 16.3151 2.22627 16.6223 3.48758 16.559L6.82739 16.389C6.96331 16.3822 7.1709 16.4256 7.38867 16.539C7.60643 16.6523 7.75956 16.7966 7.83119 16.913L9.59181 19.764C10.2563 20.8398 11.1918 21.6556 12.2805 21.4916C13.3679 21.3277 14.0237 20.2737 14.3453 19.0506L15.1155 16.11L15.1168 16.105C15.1464 15.9888 15.2412 15.8139 15.4066 15.6412C15.5714 15.4692 15.7452 15.3632 15.8648 15.3254C15.8647 15.3255 15.8649 15.3254 15.8648 15.3254L19.0938 14.3158L19.0958 14.3151C20.1699 13.976 21.0292 13.309 21.2025 12.3193C21.3761 11.328 20.7922 10.4112 19.8928 9.73204C19.8924 9.73179 19.8921 9.73154 19.8918 9.73129L17.4131 7.85228L17.4054 7.84653C17.3206 7.78395 17.2016 7.64405 17.1037 7.44185C17.0061 7.2403 16.9677 7.05561 16.9698 6.94436L17.0398 3.15382C17.0398 3.15408 17.0398 3.15356 17.0398 3.15382Z" fill="url(#paint0_linear_1983_384)"/>
<path fill-rule="evenodd" clip-rule="evenodd" d="M17.3496 17.4396C17.6425 17.1467 18.1173 17.1467 18.4102 17.4396L21.4402 20.4696C21.7331 20.7625 21.7331 21.2374 21.4402 21.5303C21.1473 21.8232 20.6724 21.8232 20.3795 21.5303L17.3496 18.5003C17.0567 18.2074 17.0567 17.7325 17.3496 17.4396Z" fill="url(#paint1_linear_1983_384)"/>
<defs>
<linearGradient id="paint0_linear_1983_384" x1="23.7391" y1="8.43693" x2="0.271412" y2="15.8464" gradientUnits="userSpaceOnUse">
<stop stop-color="#D72339"/>
<stop offset="1" stop-color="#F23B51"/>
</linearGradient>
<linearGradient id="paint1_linear_1983_384" x1="22.2034" y1="18.964" x2="17.1299" y2="20.5948" gradientUnits="userSpaceOnUse">
<stop stop-color="#D72339"/>
<stop offset="1" stop-color="#F23B51"/>
</linearGradient>
</defs>
</svg>
