<svg width="40" height="40" viewBox="0 0 40 40" fill="none" xmlns="http://www.w3.org/2000/svg">
<rect width="40" height="40" rx="20" fill="#F7F7F7"/>
<path fill-rule="evenodd" clip-rule="evenodd" d="M12.4253 12.425C12.9671 11.8823 14.0793 11.6051 15.8686 12.2016L24.3579 15.0313C24.358 15.0314 24.3577 15.0313 24.3579 15.0313C25.7372 15.4927 26.7136 16.0087 27.3299 16.518C27.9489 17.0295 28.1283 17.4648 28.1283 17.7838C28.1283 18.1025 27.9491 18.5371 27.3305 19.0472C26.7144 19.5553 25.7385 20.0694 24.359 20.5284L21.8386 21.3685C21.6147 21.4432 21.4389 21.6189 21.3643 21.8429L20.5243 24.3629C20.0653 25.7422 19.5506 26.7183 19.0419 27.3344C18.5311 27.9529 18.0956 28.1325 17.7758 28.1325C17.456 28.1325 17.0205 27.9529 16.5097 27.3344C16.001 26.7183 15.4864 25.7426 15.0274 24.3633L12.1979 15.8746C12.1978 15.8743 12.198 15.8748 12.1979 15.8746C11.6062 14.085 11.8826 12.9685 12.4253 12.425ZM11.3638 11.3651C10.2341 12.4965 10.1057 14.3255 10.7737 16.3455L10.7743 16.3472L13.6042 24.8368C13.6042 24.837 13.6041 24.8367 13.6042 24.8368C14.0952 26.3123 14.6831 27.4781 15.3531 28.2895C16.0211 29.0984 16.8406 29.6325 17.7758 29.6325C18.711 29.6325 19.5305 29.0984 20.1985 28.2895C20.8685 27.4781 21.4563 26.3127 21.9473 24.8372L22.6687 22.673L24.8326 21.9517C24.8327 21.9516 24.8325 21.9517 24.8326 21.9517C26.3079 21.4608 27.4735 20.8735 28.2848 20.2045C29.0937 19.5374 29.6283 18.7188 29.6283 17.7838C29.6283 16.849 29.094 16.0299 28.2854 15.3618C27.4743 14.6914 26.3091 14.1023 24.8337 13.6088L16.343 10.7785C14.3223 10.105 12.4945 10.2328 11.3638 11.3651Z" fill="#7D7D7D"/>
<path fill-rule="evenodd" clip-rule="evenodd" d="M17.7762 17.529C17.4829 17.8215 17.4822 18.2963 17.7747 18.5896L21.3547 22.1796C21.6472 22.4729 22.122 22.4736 22.4153 22.1811C22.7086 21.8886 22.7093 21.4138 22.4168 21.1205L18.8368 17.5305C18.5443 17.2372 18.0695 17.2365 17.7762 17.529Z" fill="#7D7D7D"/>
</svg>
