<svg width="40" height="40" viewBox="0 0 40 40" fill="none" xmlns="http://www.w3.org/2000/svg">
<rect width="40" height="40" rx="20" fill="#F7F7F7"/>
<path fill-rule="evenodd" clip-rule="evenodd" d="M9.25 20C9.25 14.0858 14.0858 9.25 20 9.25C25.9142 9.25 30.75 14.0858 30.75 20C30.75 25.9142 25.9142 30.75 20 30.75C18.1784 30.75 16.3575 30.2746 14.8003 29.4085L11.889 30.2403C10.5869 30.6123 9.37381 29.4279 9.71458 28.1173L10.5017 25.0897C9.73173 23.5613 9.25 21.8344 9.25 20ZM20 10.75C14.9142 10.75 10.75 14.9142 10.75 20C10.75 21.6595 11.2109 23.2392 11.9618 24.6471C12.0504 24.8132 12.0732 25.0065 12.0259 25.1887L11.1663 28.4947C11.1176 28.6819 11.2909 28.8512 11.4769 28.798L14.694 27.8789C14.8936 27.8218 15.1079 27.8501 15.2859 27.9569C16.668 28.7861 18.3344 29.25 20 29.25C25.0858 29.25 29.25 25.0858 29.25 20C29.25 14.9142 25.0858 10.75 20 10.75Z" fill="#7D7D7D"/>
<path fill-rule="evenodd" clip-rule="evenodd" d="M17.1179 16.25C17.0159 16.25 16.8814 16.2858 16.7063 16.4579L16.7006 16.4635L16.6948 16.4689C16.5312 16.623 16.4252 16.784 16.36 16.9495L16.3585 16.9534C16.2882 17.1289 16.25 17.326 16.25 17.543C16.25 17.8935 16.3308 18.2845 16.5151 18.722C16.7057 19.1698 16.9729 19.6336 17.3151 20.1089C17.665 20.5886 18.0581 21.0489 18.4951 21.4898C18.9369 21.9264 19.3987 22.3196 19.885 22.6743C20.3577 23.0178 20.8267 23.2854 21.2874 23.4814C21.7304 23.6699 22.1217 23.75 22.4629 23.75C22.6834 23.75 22.878 23.7096 23.0537 23.6365L23.0577 23.6349C23.2176 23.5694 23.371 23.4639 23.5257 23.2938C23.6038 23.2076 23.6626 23.1172 23.7093 23.0184C23.7393 22.955 23.75 22.8978 23.75 22.8485C23.75 22.8403 23.7492 22.8333 23.7474 22.8248C23.7472 22.8239 23.747 22.8228 23.7467 22.8217L22.2612 21.7686C22.1977 21.7258 22.1504 21.6992 22.1158 21.6827C22.0963 21.6948 22.0522 21.7265 21.9834 21.7952L21.9798 21.7987L21.6382 22.1354C21.5409 22.2316 21.439 22.2852 21.3874 22.3101C21.3266 22.3395 21.2704 22.3596 21.2308 22.3724C21.1893 22.3858 21.1528 22.3955 21.127 22.4018C21.1137 22.4051 21.1023 22.4077 21.0932 22.4097L21.0813 22.4123L21.0767 22.4132L21.0747 22.4136L21.0734 22.4139C21.0733 22.4139 21.073 22.414 20.9261 21.6785L20.591 22.3495L20.5883 22.3481L20.5824 22.3451L20.5619 22.3347C20.5446 22.3259 20.5203 22.3134 20.4906 22.2979C20.4315 22.2671 20.3499 22.2235 20.2596 22.1729C20.0962 22.0813 19.8449 21.9337 19.6669 21.7834L19.666 21.7826C19.4076 21.5635 19.1589 21.3291 18.9095 21.0847L18.9044 21.0797L18.8994 21.0747C18.6517 20.8225 18.4246 20.572 18.2142 20.3292L18.2087 20.3229C18.189 20.2996 18.1629 20.2734 18.113 20.2266C18.1081 20.222 18.1026 20.2169 18.0966 20.2113C18.0537 20.1713 17.9853 20.1076 17.9241 20.0403C17.7585 19.8585 17.5748 19.5777 17.5757 19.1702C17.5767 18.7542 17.8074 18.4348 17.9238 18.2902C18.0514 18.1317 18.2216 17.9776 18.1969 18.0023C18.2486 17.9506 18.2832 17.9084 18.305 17.8775C18.2891 17.8448 18.2637 17.8007 18.2222 17.7432L18.2191 17.7389L17.1702 16.2627C17.1698 16.2625 17.1695 16.2623 17.1691 16.2621L17.1588 16.2574C17.1537 16.255 17.1393 16.25 17.1179 16.25ZM20.9261 21.6785L20.591 22.3495L20.821 22.4643L21.0734 22.4139L20.9261 21.6785ZM20.9254 20.7319L20.8656 20.7908C20.7597 20.7277 20.6766 20.6726 20.6354 20.6379C20.4178 20.4534 20.1996 20.2487 19.9644 20.0183C19.7463 19.796 19.5431 19.5721 19.35 19.3495C19.2822 19.2699 19.2139 19.2031 19.1621 19.1541C19.1645 19.1517 19.1668 19.1494 19.1692 19.1471C19.1824 19.1341 19.1948 19.1224 19.207 19.111L19.2265 19.0928C19.2318 19.0879 19.2442 19.0763 19.2568 19.0637C19.3962 18.9245 19.5263 18.7667 19.6261 18.5931C19.7496 18.3866 19.8239 18.1488 19.8239 17.894C19.8239 17.6851 19.7711 17.4911 19.7025 17.3295C19.6358 17.1683 19.5468 17.0159 19.4405 16.8681L18.3984 15.4015C18.2363 15.1694 18.0272 15.007 17.802 14.9022C17.5832 14.7983 17.3472 14.75 17.1179 14.75C16.5556 14.75 16.0613 14.9909 15.6606 15.3825C15.3498 15.6766 15.1155 16.0171 14.9652 16.3976C14.8197 16.7615 14.75 17.1487 14.75 17.543C14.75 18.1282 14.8854 18.7179 15.1334 19.3059L15.1343 19.3081C15.3761 19.8765 15.7033 20.4377 16.0993 20.9874L16.1018 20.9909C16.499 21.5356 16.9429 22.0548 17.4327 22.5487L17.4378 22.5538C17.9326 23.043 18.4523 23.4859 19.0015 23.8865L19.0024 23.8871C19.5571 24.2904 20.1244 24.6167 20.7001 24.8616C21.2936 25.1142 21.8848 25.25 22.4629 25.25C22.8727 25.25 23.2633 25.1737 23.6279 25.0223C24.0169 24.8627 24.3495 24.6176 24.6359 24.3024C24.819 24.1006 24.9589 23.8847 25.0653 23.6596C25.1886 23.399 25.25 23.1232 25.25 22.8485C25.25 22.6074 25.1966 22.3997 25.1241 22.2186L25.1194 22.2067L25.1142 22.1951C25.0015 21.9392 24.8225 21.7428 24.6106 21.5954L23.1158 20.5358L23.1096 20.5315C22.9691 20.4361 22.8185 20.3484 22.6564 20.2822C22.4796 20.21 22.2933 20.168 22.0979 20.168C21.8407 20.168 21.611 20.2409 21.4096 20.3589C21.2241 20.4594 21.0627 20.5951 20.9254 20.7319Z" fill="#7D7D7D"/>
</svg>
